<?xml version='1.0' encoding='utf-8'?>
<svg xmlns="http://www.w3.org/2000/svg" viewBox="240.4 151.779 162.177 98.407"> <path fill-rule="evenodd" clip-rule="evenodd" d="M 267.043 168.471 L 264.279 168.471 C 263.397 168.471 262.644 168.648 262.142 169.178 C 261.638 169.526 261.263 170.229 261.013 170.757 C 260.757 171.459 260.633 172.16 260.511 172.867 C 260.383 173.743 260.383 174.448 260.383 174.973 L 260.383 190.788 C 260.383 192.719 260.131 194.302 259.501 195.532 C 258.876 196.761 258.122 197.818 257.117 198.521 C 256.235 199.222 255.102 199.749 254.098 200.103 C 252.965 200.452 251.96 200.631 251.084 200.631 L 251.084 200.806 C 251.861 200.806 252.744 200.945 253.721 201.098 L 254.098 201.157 C 255.23 201.332 256.235 201.859 257.117 202.562 C 257.994 203.265 258.876 204.32 259.501 205.726 C 260.131 207.132 260.383 209.067 260.383 211.348 L 260.383 226.287 C 260.383 226.988 260.383 227.69 260.511 228.395 C 260.633 229.273 260.757 229.976 261.135 230.502 C 261.387 231.206 261.89 231.732 262.52 232.086 C 263.148 232.435 263.899 232.789 265.031 232.789 L 267.167 232.789 L 267.167 250.186 L 258.246 250.186 C 256.989 250.186 255.732 249.832 254.478 249.306 C 253.221 248.779 251.96 247.901 250.832 246.847 C 249.699 245.79 248.821 244.209 248.064 242.451 C 247.316 240.697 247.06 238.585 247.06 236.126 L 247.06 216.445 C 247.06 214.861 246.813 213.632 246.311 212.756 C 245.803 211.876 245.179 211.173 244.422 210.647 C 243.666 210.118 242.917 209.768 242.159 209.59 C 241.408 209.415 240.78 209.415 240.4 209.415 L 240.4 192.719 C 240.902 192.719 241.408 192.719 242.159 192.548 C 242.917 192.371 243.666 192.195 244.296 191.668 C 245.051 191.14 245.553 190.613 246.183 189.736 C 246.813 188.856 246.936 187.799 246.936 186.397 L 246.936 165.837 C 246.936 163.378 247.316 161.268 247.942 159.508 C 248.695 157.755 249.577 156.348 250.704 155.117 C 251.836 154.06 252.965 153.182 254.35 152.657 C 255.608 152.129 256.863 151.779 258.122 151.779 L 267.043 151.779 L 267.043 168.471 Z M 375.936 168.471 L 378.702 168.471 C 379.578 168.471 380.335 168.648 380.839 169.178 C 381.341 169.526 381.719 170.229 381.967 170.757 C 382.221 171.459 382.346 172.16 382.47 172.867 C 382.598 173.743 382.598 174.448 382.598 174.973 L 382.598 190.788 C 382.598 192.719 382.848 194.302 383.474 195.532 C 384.105 196.761 384.859 197.818 385.864 198.521 C 386.744 199.222 387.873 199.749 388.879 200.103 C 390.01 200.452 391.02 200.631 391.897 200.631 L 391.897 200.806 C 391.119 200.806 390.237 200.945 389.257 201.098 L 388.879 201.157 C 387.751 201.332 386.744 201.859 385.864 202.562 C 384.987 203.265 384.105 204.32 383.474 205.726 C 382.848 207.132 382.598 209.067 382.598 211.348 L 382.598 226.287 C 382.598 226.988 382.598 227.69 382.47 228.395 C 382.346 229.273 382.221 229.976 381.843 230.502 C 381.593 231.206 381.091 231.732 380.463 232.086 C 379.834 232.435 379.078 232.789 377.947 232.789 L 375.81 232.789 L 375.81 250.186 L 384.735 250.186 C 385.992 250.186 387.246 249.832 388.503 249.306 C 389.76 248.779 391.02 247.901 392.147 246.847 C 393.278 245.79 394.158 244.209 394.911 242.451 C 395.665 240.697 395.921 238.585 395.921 236.126 L 395.921 216.445 C 395.921 214.861 396.167 213.632 396.67 212.756 C 397.172 211.876 397.802 211.173 398.556 210.647 C 399.309 210.118 400.065 209.768 400.822 209.59 C 401.57 209.415 402.201 209.415 402.577 209.415 L 402.577 192.719 C 402.073 192.719 401.57 192.719 400.822 192.548 C 400.065 192.371 399.309 192.195 398.681 191.668 C 397.93 191.14 397.428 190.613 396.798 189.736 C 396.167 188.856 396.043 187.799 396.043 186.397 L 396.043 165.837 C 396.043 163.378 395.665 161.268 395.039 159.508 C 394.286 157.755 393.404 156.348 392.271 155.117 C 391.142 154.06 390.01 153.182 388.631 152.657 C 387.37 152.129 386.114 151.779 384.859 151.779 L 375.936 151.779 L 375.936 168.471 Z M 348.136 213.916 L 296.154 155.291 L 283.789 155.291 L 283.789 169.235 L 335.776 227.858 L 326.51 238.299 L 332.673 245.242 L 343.332 233.077 L 357.402 248.692 C 359.101 250.616 361.855 250.616 363.559 248.692 L 366.662 245.196 C 368.367 243.276 368.367 240.17 366.662 238.249 L 352.769 222.586 L 363.559 210.415 L 357.402 203.472 L 348.136 213.916 Z M 359.192 169.187 L 338.486 192.533 L 326.12 178.642 L 346.827 155.291 L 359.192 155.291 L 359.192 169.187 Z M 304.495 203.027 L 316.86 217.167 L 307.204 227.858 L 316.465 238.299 L 310.307 245.242 L 299.647 233.077 L 285.579 248.745 C 283.874 250.664 281.126 250.664 279.421 248.745 L 276.318 245.242 C 274.614 243.324 274.614 240.223 276.318 238.299 L 290.212 222.586 L 279.421 210.415 L 285.579 203.472 L 294.839 213.916 L 304.495 203.027 Z" fill="#FFDF00" style=""/> </svg>